<?xml version="1.0" encoding="utf-8"?>
<!-- Generator: Adobe Illustrator 15.0.0, SVG Export Plug-In . SVG Version: 6.00 Build 0)  -->
<!DOCTYPE svg PUBLIC "-//W3C//DTD SVG 1.1//EN" "http://www.w3.org/Graphics/SVG/1.1/DTD/svg11.dtd">
<svg version="1.1" xmlns="http://www.w3.org/2000/svg" xmlns:xlink="http://www.w3.org/1999/xlink" x="0px" y="0px"
	 width="340.667px" height="75.811px" viewBox="0 0 340.667 75.811" enable-background="new 0 0 340.667 75.811"
	 xml:space="preserve">
<g id="Layer_1">
</g>
<g id="Layer_2">
	<path fill="#EAB020" d="M5.536,72.03V4.19h19.554c10.782,0,19.553,8.133,19.553,18.128c0,4.865-2.141,9.534-5.906,12.945
		c6.134,3.671,9.906,10.021,9.906,16.784c0,11.019-9.669,19.982-21.553,19.982H5.536z M27.089,63.279
		c6.679,0,12.113-5.039,12.113-11.231s-5.434-11.23-12.113-11.23H14.976v22.461H27.089z M25.089,31.694
		c5.576,0,10.113-4.206,10.113-9.376s-4.537-9.376-10.113-9.376H15.036v8.323c-0.04,0.392-0.06,0.72-0.06,1.053v9.376H25.089z"/>
	<path fill="#EAB020" d="M52.287,71.925V28.28h9.44v4.112c4.106-2.878,9.121-4.45,14.28-4.45c4.962,0,9.723,1.417,13.767,4.1
		l0.652,0.432l-6.312,6.569l-0.516-0.302c-2.288-1.338-4.913-2.046-7.591-2.046c-7.874,0-14.28,5.938-14.28,13.238v21.992H52.287z"
		/>
	<path fill="#EAB020" d="M110.491,71.924c-13.079,0-23.72-9.865-23.72-21.991c0-12.126,10.641-21.992,23.72-21.992
		c4.889,0,9.588,1.377,13.591,3.983l0.053,0.036c2.254,1.476,4.198,3.283,5.779,5.372l0.347,0.459l-25.954,24.063
		c1.93,0.865,4.049,1.318,6.183,1.318c7.254,0,13.35-5.038,14.178-11.72l0.084-0.682l9.357,1.226l-0.087,0.651
		C132.556,63.637,122.439,71.924,110.491,71.924z M110.491,36.693c-7.874,0-14.28,5.939-14.28,13.24c0,1.98,0.489,3.943,1.421,5.732
		l19.044-17.657C114.754,37.146,112.634,36.693,110.491,36.693z"/>
	<polygon fill="#EAB020" points="169.788,71.925 162.854,54.292 155.919,71.925 147.253,71.925 129.77,27.465 138.961,27.465 
		151.586,59.571 162.854,30.919 174.121,59.572 186.747,27.465 195.938,27.465 178.454,71.925 	"/>
	<path fill="#FFFFFF" d="M294.223,72.03V4.19h19.593c10.781,0,19.552,8.133,19.552,18.128c0,4.866-2.141,9.534-5.905,12.945
		c6.134,3.671,9.905,10.021,9.905,16.784c0,11.019-9.668,19.982-21.552,19.982H294.223z M315.816,63.279
		c6.679,0,12.112-5.039,12.112-11.231s-5.434-11.23-12.112-11.23H303.68v22.461H315.816z M313.816,31.694
		c5.576,0,10.112-4.206,10.112-9.376s-4.536-9.376-10.112-9.376h-10.075v8.323c-0.04,0.393-0.061,0.721-0.061,1.053v9.376H313.816z"
		/>
	<path fill="#FFFFFF" d="M326.279,35.373c3.896-3.201,6.369-7.859,6.369-13.055c0-9.628-8.447-17.461-18.832-17.461H302.96h-8.018
		v66.506h4h4.018h12.855c11.486,0,20.832-8.665,20.832-19.315C336.648,44.937,332.47,38.725,326.279,35.373z M302.96,22.318
		c0-0.356,0.021-0.707,0.061-1.053l0,0v-8.991h10.795c5.973,0,10.832,4.506,10.832,10.044s-4.859,10.043-10.832,10.043H302.96
		V22.318z M302.96,36.577c0.07,0.046,0.137,0.099,0.207,0.143c-0.068,0.049-0.139,0.094-0.207,0.144V36.577z M315.816,63.946H302.96
		V52.048v-2.533V40.15h12.855c7.076,0,12.832,5.337,12.832,11.898S322.892,63.946,315.816,63.946z"/>
	<polygon fill="#FFFFFF" points="230.45,72.03 230.45,42.767 207.491,42.767 207.491,72.03 198.048,72.03 198.048,4.19 
		207.491,4.19 207.491,33.643 230.45,33.643 230.45,4.19 239.889,4.19 239.889,72.03 	"/>
	<polygon fill="#FFFFFF" points="206.771,71.363 206.771,42.099 231.169,42.099 231.169,71.363 239.169,71.363 239.169,4.857 
		231.169,4.857 231.169,34.311 206.771,34.311 206.771,4.857 198.768,4.857 198.768,71.363 	"/>
	<rect x="251.474" y="10.457" fill="#EAB020" width="32.5" height="55.751"/>
	<path fill="#FFFFFF" d="M290.058,4.857H245.24l1.288,17.52h0.001l3.595,48.881h35.051l3.595-48.881h0.001L290.058,4.857z
		 M277.72,63.575h-20.143l-3.031-41.198h26.204L277.72,63.575z"/>
</g>
<g id="Layer_4">
</g>
</svg>
